<svg xmlns="http://www.w3.org/2000/svg" width="2000.024" height="1287.114" viewBox="0 0 1961 1262">
  <defs>
    <style>
      .cls-1 {
        fill-rule: evenodd;
      }
    </style>
  </defs>
  <path id="GSF_1" class="cls-1" d="M867.317,0.312c27.65,0.673,28.915,21.937,40.913,37.924,5.8,7.724,16.816,10.475,27.941,12.974h29.937c27.955,0,65.222,4.006,81.822-7.984,16.52-11.926,20-55.451,54.89-39.92,11.33,5.043,21.34,18.031,24.94,30.938,2.85,10.195,2.19,18.538,5.99,26.946,8.9,19.681,28.27,32.793,45.9,43.911,30.97,19.524,65.13,32.438,100.79,47.9,32.83,14.236,67.31,29.062,100.79,42.914,14.9,6.166,29.4,9.591,43.9,15.968a343.672,343.672,0,0,1,56.88,31.936c6.35,4.454,12.32,10.842,18.96,14.97,8.35,5.189,19.2,5.772,27.94,10.978,5.93,3.53,9.41,10.44,14.97,13.971,11.82,7.51,27.02,10.692,38.92,17.964,23.12,14.134,47.74,30.329,72.84,41.916,49.96,23.056,106.9,38.325,158.67,60.878,11.88,5.177,25.6,11.082,36.92,17.964,5.93,3.609,12.52,9.111,18.96,11.976,11.98,5.33,24.93,6.6,37.92,11.976,20.43,8.465,36.38,25.55,44.9,45.907,4.03,9.611,4.99,20.8,4.99,33.932q0.495,12.973,1,25.948c-11.01,51.685-31.38,70.32-69.85,93.812-11.69,7.135-41.1,14.735-47.9,24.95-7.78,11.691-9.41,31.008-12.97,46.9-2.23,9.926.21,24.1,1.99,31.936,2.41,10.59.9,19.478,3.99,28.942,7.44,22.75,18.59,43.013,28.94,62.874,20.94,40.141,37.98,84.745,52.89,129.739,6.94,20.924,11.29,43.649,17.96,63.869,10.6,32.14,31.31,101.48-.99,124.75-29,20.89-78.72-14.78-88.82-34.93-5.34-10.66-1.82-24.98-4.99-38.92-4.22-18.62-5.3-37.37-10.97-54.89-14.86-45.833-25.91-97.4-44.91-140.716-11.03-25.157-28.09-44.767-42.91-65.868-15.28-21.76-37.44-51.089-59.87-64.87-7.13-4.378-16.03-4.362-24.95-6.986-17.82-5.243-44.12-13.147-65.86-6.986-15.63,4.434-29.28,12.442-43.9,17.964-20.13,7.6-40.76,11.557-59.88,19.96-46.72,20.542-90.84,49.194-138.7,68.862-11.61,4.771-26.96,5.929-39.92,8.982q-2.49,2.992-4.99,5.988c-0.21,13.837,5.11,18.139,8.98,26.945a383.155,383.155,0,0,0,29.94,55.888c31.76,48.568,70.41,88.157,104.78,133.727,5.81,7.71,16.06,12.23,22.95,18.97,9.83,9.62,21.69,19.97,29.94,30.93,3.76,5.01,7.02,11.25,11.97,14.97,10.81,8.14,23.85,14.09,38.92,17.97,10.04,2.58,18.96.86,26.94,4.99,14.42,7.45,30.55,31.34,21.95,54.89a70.62,70.62,0,0,1-8.98,15.97c-5.2,7.01-15.53,13.36-24.94,15.96-8.68,2.4-22.37.87-30.94-.99h-16.96c-19.54-4.28-40.87-3.89-57.88-8.99-9.03-2.7-17.26-4.14-24.95-6.98-9.42-3.49-18.86-5.07-26.94-9.98-61-37.14-85.74-106.45-123.74-166.67-18.54-29.39-47.03-49.71-66.85-77.841-32.3-45.82-36.43-84.265-102.79-98.8-12.48-2.736-40.23-.307-50.89,2h-16.96c-11.54,2.487-27.24.473-38.92,2.993H972.1c-22.728,0-46.8,1.332-66.858-2.993H888.273c-20.35-4.38-49.707-2.775-65.86,3.991-37.549,15.73-50.894,52.647-72.846,83.832-24.548,34.873-56.907,64.463-79.83,100.793-8.578,13.6-13.417,28.84-21.954,42.92-18.28,30.15-37.6,61.46-61.868,85.83-20.69,20.76-45.284,32.5-78.833,40.91-20.964,5.26-42.773,2.15-64.862,6.99-27.872,6.1-59.212,4.29-72.846-13.97-3.7-4.97-6.383-12.11-7.983-18.96-2.1-8.99.993-19.67,2.994-24.95,14.832-39.18,53.023-25.38,82.824-46.91,13.3-9.61,20.97-26.14,33.928-35.93,27.351-20.65,50.243-48.43,70.85-75.85,7.9-10.5,19.056-19.38,26.942-29.94,15.286-20.445,30.092-39.638,43.907-61.871a407.382,407.382,0,0,0,27.941-52.894c3.876-8.867,9.439-15.582,6.985-28.941-15.254-9.274-40.728-9.58-55.881-18.962-19.368-11.992-42.663-20.156-64.863-29.94-21.138-9.317-41.079-23.777-61.868-32.934-13.8-6.079-28.478-9.04-42.909-14.97-15.368-6.314-31.573-13.634-47.9-18.962-43.907-14.329-108.383,4.029-128.727,30.938-22.247,29.426-47.165,56.6-66.858,88.822-16.859,27.586-24.968,63.694-35.924,96.8-10.494,31.715-18.631,62.309-26.943,94.809-5.723,22.38-.835,52.22-11.974,68.86-5.117,7.65-13,10.97-20.956,15.97-18.268,11.48-39.2,32.94-65.86,12.97-30.329-22.72-10.312-92.53,0-123.75,9.071-27.46,14.953-57.1,25.945-83.829C67.275,916.8,80.3,883.467,94.957,849.606c5.365-12.4,10.3-26.025,15.966-38.922,3.954-9,11.078-17.755,14.968-26.946,5.262-12.431,7.855-29.591,7.983-45.908,0.215-27.426-2.5-51.01-13.97-66.865-7.084-9.792-31.478-14.762-42.909-21.956-15.078-9.49-40.775-22.02-50.892-35.928-10.042-13.806-14.38-29.224-19.958-47.9C3.132,555.086-1.1,535.913,2.154,521.265c1.784-8.041,2.159-17.246,4.989-24.95,7.082-19.273,22.6-39.839,40.913-47.9l37.92-10.978c9.32-3.974,17.7-10.922,25.945-15.968,10.884-6.66,24.358-11.959,35.924-16.966,40.819-17.673,85.584-27.252,125.733-44.91,34.643-15.236,64.8-35.98,95.8-54.89,14.328-8.74,31.453-12,45.9-20.958,4.68-2.9,8.4-8.092,12.972-10.977,17.277-10.891,35.527-18.293,52.888-28.942,17.045-10.456,34.836-22.561,53.886-30.938,23.5-10.336,48.118-16.653,71.847-26.946C629.863,175.965,652.9,163.9,675.724,154c20.4-8.848,41.534-14.037,61.869-22.954,13.476-5.909,25.119-15.489,36.921-22.954,9.062-5.731,18.239-9.842,26.943-15.968,11.985-8.434,23.891-22.8,28.939-37.924,3.646-10.928,2.556-23.186,7.983-31.936,4.395-7.087,12.766-14.726,19.957-18.962ZM724.62,475.358v150.7c-36.756.236-104.346,6.455-125.733-8.982-26.357-19.024-21.971-50.741-21.953-92.814q-0.5-61.37-1-122.753c0-31.92-1.2-61.611,11.974-79.84,21.563-29.839,79.247-21.961,129.725-21.956,15.5,0,40.352,3.27,50.892-2.994,19.24-11.433,15.818-53.784-3.992-61.875-7.416-3.029-18.713-1.675-28.535-1.841-15.523-.262-35.209-0.156-52.293-0.155-27.892,0-68.087-2.351-88.811,5.988-32.991,13.274-58.2,41.2-68.854,76.845-4.28,14.314-2.994,32.989-2.994,50.9V454.4c0,48.564-.048,96.036-0.048,144.6,2.151,31.541,22.865,58.747,45.951,74.959,34.9,24.509,89.2,18.959,147.686,18.961,22.972,0,50.576,2.814,59.873-10.977C785.274,668.943,783,627.7,783,607V485c0-19.245,1.874-47.084-4.494-61.538-2.036-4.621-8.235-11.029-12.973-12.974C760.839,408.56,736.2,407.869,721,408c-22.52.195-42.459-.725-51.263,11.47-12.027,16.657-5.076,47.273,10.976,53.892C689.253,476.882,713.424,475.514,724.62,475.358Zm236.5-173.652c-9.418,1.972-20.567,3.873-27.94,6.986-19.637,8.292-38.339,23.35-49.895,39.92-7.593,10.888-13.066,24.718-16.964,38.922C863.556,397.6,863,409.957,863,422c0,17.956.776,34.7,5.315,48.368,19.315,58.152,89.3,77.362,137.7,106.785,23.68,14.391,72.03,28.39,59.88,73.852-1.01,3.782-2.27,9.039-4,12.974-11.4,25.974-48.59,36.863-84.9,25.021-18.507-6.035-38.758-14.165-54.8-23.025C914.468,661.7,892.853,644.512,880.29,653c-14.221,3.937-21.5,28.574-13.971,46.9,2.77,6.741,9.423,14.841,14.969,18.962,20.337,15.114,43.91,26.351,70.849,34.93,9.482,3.02,27.432,5.25,37.863,6.2,19.75,1.8,31.05,2.412,48.95-1.212,27.58-5.582,50.14-25.181,63.87-46.906,8.37-13.242,13.86-28.579,17.96-45.907,3.82-16.159,3.72-43.419.22-56.975-3.36-13.025-7.07-22.775-13.19-32.845-26.32-43.282-80.51-60.561-123.741-86.826-24.621-14.957-54.364-20.784-64.862-49.9-4.792-13.291-.767-29.708,3.992-38.922,6.3-12.2,13.08-21.566,25.945-26.946,35.035-14.652,88.816,6.939,115.756,14.97,14.92,4.447,27.8-3.315,32.93-11.976,2.79-4.713,1.55-9.571,2.99-15.968,3.85-17.051-5.88-27.329-15.96-33.932C1053.86,306.352,1012.94,301.662,961.118,301.706Zm287.392,48.9q-5.985,2-11.98,3.992c-3.2,4.82-8.21,8.608-9.98,14.97V764.776c0,10.064-.73,16.26.45,25.224,0.99,7.5,8.7,16.166,15.52,18.688,19.11,7.069,33.52-7.271,36.92-19.96,0-43.134.56-195.728,0.56-195.728h137c7.25,0,18.92-3.528,23-11,7.74-14.179,4.08-44.446-6.88-51.753-9.22-6.142-43.91-3.992-43.91-3.992h-69.85l-37.92-1S1281,455.6,1281,417c-5.1-.191,79.92-0.076,112.2-0.524,11.92,0,28.09,1.895,36.92-2,6.7-2.953,11.07-11.257,12.98-18.962,4.15-16.8-2.8-35.463-10.98-40.918-10.65-7.1-36.08-3.993-52.89-3.992H1248.51Z"/>
</svg>
